<?xml version="1.0" standalone="no"?>
<!DOCTYPE svg PUBLIC "-//W3C//DTD SVG 20010904//EN"
 "http://www.w3.org/TR/2001/REC-SVG-20010904/DTD/svg10.dtd">
<svg version="1.0" xmlns="http://www.w3.org/2000/svg"
 width="512.000000pt" height="512.000000pt" viewBox="0 0 512.000000 512.000000"
 preserveAspectRatio="xMidYMid meet">

<g transform="translate(0.000000,512.000000) scale(0.100000,-0.100000)"
fill="#000000" stroke="none">
<path d="M3075 3884 c-79 -6 -185 -25 -185 -34 0 -5 -10 -12 -22 -15 -45 -14
-85 -72 -97 -139 -6 -35 -11 -77 -11 -93 0 -17 -4 -33 -8 -35 -8 -3 -43 -497
-42 -605 0 -31 -5 -53 -12 -55 -16 -6 -18 -1255 -2 -1266 5 -4 15 -83 22 -180
12 -171 12 -174 41 -203 17 -16 50 -34 78 -41 26 -7 51 -17 55 -23 11 -16
1010 -14 1015 3 3 6 16 12 30 12 41 0 238 33 243 41 3 4 34 15 70 24 36 9 67
20 70 24 3 4 33 16 68 26 34 11 62 23 62 26 0 4 20 14 45 23 25 10 45 21 45
26 0 5 16 14 35 20 19 6 38 17 42 24 5 7 15 16 23 20 38 18 61 37 136 112 45
45 87 95 95 112 8 18 17 32 21 32 4 0 15 26 25 58 9 31 22 60 28 64 16 11 14
460 -2 466 -7 2 -13 10 -13 17 0 24 -31 108 -45 122 -8 7 -19 28 -26 46 -6 18
-26 43 -43 56 -18 14 -43 39 -56 56 -14 18 -41 40 -62 49 -21 9 -38 21 -38 26
0 6 -14 16 -31 22 -34 12 -36 37 -3 53 12 6 32 24 45 39 13 16 35 41 49 55 25
25 60 89 60 109 0 6 6 12 13 15 16 5 18 414 1 425 -6 4 -21 29 -34 56 -24 50
-152 186 -175 186 -7 0 -15 7 -19 15 -3 8 -17 20 -31 25 -14 5 -25 13 -25 18
0 5 -20 17 -45 28 -25 10 -45 21 -45 25 0 4 -26 15 -57 25 -32 10 -60 21 -63
25 -3 4 -46 16 -95 25 -50 10 -92 21 -95 24 -15 21 -223 33 -590 35 -217 1
-417 1 -445 -1z m716 -165 c74 -6 136 -14 139 -18 3 -4 52 -15 110 -24 57 -10
107 -21 110 -26 3 -4 39 -17 79 -29 41 -12 77 -26 80 -30 4 -4 24 -16 46 -27
22 -11 44 -26 48 -32 4 -7 14 -13 22 -13 8 0 20 -9 27 -20 7 -11 17 -20 23
-20 13 0 95 -84 95 -97 0 -6 6 -13 13 -16 6 -2 18 -22 26 -43 8 -22 19 -42 25
-46 15 -10 15 -176 0 -186 -6 -4 -15 -22 -19 -41 -5 -24 -32 -58 -91 -118 -46
-45 -90 -83 -98 -83 -8 0 -19 -6 -23 -13 -4 -7 -27 -21 -50 -30 -60 -23 -83
-50 -83 -93 0 -36 29 -73 58 -74 6 0 12 -4 12 -10 0 -5 17 -14 38 -20 22 -5
48 -18 60 -28 12 -10 39 -25 62 -32 23 -7 46 -22 51 -32 5 -10 16 -18 24 -18
18 0 125 -104 125 -122 0 -8 9 -23 19 -35 22 -23 47 -92 57 -153 4 -22 10 -40
15 -40 5 0 9 -36 9 -80 0 -44 -4 -80 -8 -80 -5 0 -16 -32 -26 -71 -11 -39 -24
-76 -30 -82 -6 -7 -19 -26 -28 -43 -18 -32 -118 -137 -141 -148 -21 -10 -51
-31 -62 -42 -5 -6 -26 -17 -45 -25 -19 -7 -42 -21 -52 -31 -10 -10 -24 -18
-32 -18 -8 0 -21 -6 -28 -13 -7 -7 -47 -23 -88 -36 -41 -14 -77 -27 -80 -31
-6 -8 -132 -40 -159 -40 -11 0 -21 -4 -23 -9 -3 -11 -205 -41 -268 -41 -22 0
-40 -4 -40 -10 0 -6 -98 -10 -275 -10 -177 0 -275 4 -275 10 0 6 -25 10 -55
10 -75 0 -157 19 -178 41 -15 16 -21 53 -32 207 -8 103 -15 238 -15 300 0 68
-4 112 -10 112 -6 0 -10 72 -10 195 0 123 4 195 10 195 6 0 10 57 10 153 0
180 30 740 40 747 4 3 10 52 13 110 12 189 33 249 96 265 14 4 28 11 31 15 16
26 515 39 751 19z"/>
<path d="M3492 3279 c-7 -11 -16 -65 -19 -120 -3 -54 -10 -99 -15 -99 -4 0 -8
-41 -8 -91 0 -106 8 -118 77 -119 55 0 197 20 203 29 3 4 27 15 53 25 29 11
69 39 100 70 51 50 52 52 52 111 0 56 -3 62 -36 95 -20 19 -46 43 -58 53 -24
19 -128 47 -178 47 -18 0 -33 5 -33 10 0 6 -28 10 -63 10 -52 0 -64 -3 -75
-21z m198 -194 c0 -18 -41 -37 -54 -25 -5 5 -6 16 -3 24 8 21 57 21 57 1z"/>
<path d="M3505 2396 c-17 -12 -18 -26 -12 -205 7 -236 -1 -224 142 -216 121 7
248 24 255 34 3 4 25 13 49 21 24 8 61 30 83 49 36 33 38 37 38 96 0 35 -6 74
-13 87 -20 39 -67 77 -111 90 -23 7 -44 16 -47 21 -20 29 -348 49 -384 23z
m245 -177 c3 -4 18 -11 33 -14 28 -7 38 -25 13 -25 -8 0 -16 -4 -18 -10 -1 -5
-25 -11 -53 -12 -47 -3 -50 -1 -54 22 -1 14 -8 28 -15 33 -8 5 -7 10 3 16 15
10 83 3 91 -10z"/>
<path d="M1785 3814 c-22 -24 -42 -49 -44 -55 -2 -7 -11 -19 -21 -29 -9 -9
-21 -35 -25 -56 -4 -21 -11 -41 -16 -44 -4 -3 -16 -42 -25 -85 -10 -44 -21
-82 -25 -85 -3 -3 -14 -39 -23 -80 -10 -41 -21 -77 -25 -80 -4 -3 -18 -57 -31
-120 -13 -63 -26 -117 -30 -120 -4 -3 -15 -47 -25 -97 -9 -51 -21 -93 -26 -93
-5 0 -9 -11 -9 -25 0 -38 -17 -30 -25 12 -4 21 -10 40 -14 43 -4 3 -15 41 -25
85 -9 43 -20 82 -25 85 -4 3 -16 46 -26 95 -10 50 -22 92 -26 95 -3 3 -15 39
-25 80 -9 41 -21 77 -24 80 -4 3 -15 39 -24 80 -10 41 -21 77 -25 80 -4 3 -15
33 -24 68 -19 68 -19 69 -85 140 l-44 47 -241 -2 c-238 -2 -407 -16 -407 -34
0 -5 -7 -9 -15 -9 -24 0 -108 -31 -122 -46 -8 -8 -23 -19 -33 -24 -10 -6 -24
-26 -31 -45 -7 -19 -17 -35 -21 -35 -4 0 -8 -54 -8 -120 0 -73 4 -120 10 -120
6 0 10 -15 10 -32 0 -43 31 -212 40 -218 4 -3 15 -45 25 -95 10 -49 22 -92 26
-95 3 -3 15 -39 25 -80 9 -41 20 -77 24 -80 4 -3 15 -44 25 -92 10 -49 21 -88
25 -88 5 0 16 -31 25 -70 9 -38 20 -70 24 -70 4 0 17 -43 30 -95 14 -52 27
-95 31 -95 3 0 14 -29 25 -65 10 -36 21 -65 25 -65 4 0 15 -29 25 -65 9 -36
20 -65 24 -65 4 0 15 -29 26 -65 10 -36 22 -65 26 -65 4 0 15 -25 24 -55 10
-30 20 -55 24 -55 3 0 15 -27 25 -60 11 -33 23 -60 27 -60 4 0 15 -27 25 -60
10 -33 21 -60 25 -60 4 0 15 -25 24 -55 10 -30 21 -55 26 -55 4 0 13 -16 19
-36 7 -19 18 -38 26 -41 8 -3 14 -10 14 -17 0 -14 83 -101 111 -117 11 -6 54
-13 95 -16 41 -3 74 -10 74 -14 0 -5 133 -9 295 -9 190 0 295 4 295 10 0 6 9
10 21 10 39 0 92 40 160 119 18 20 49 85 49 100 0 6 4 11 9 11 4 0 16 24 25
54 10 30 21 56 24 58 4 2 18 36 31 76 13 39 26 72 30 72 4 0 15 27 25 60 10
33 22 60 26 60 4 0 15 27 24 60 9 33 21 60 25 60 4 0 16 27 26 60 10 33 21 60
24 60 4 0 15 29 25 65 10 36 22 65 25 65 4 0 15 32 25 70 10 39 22 70 26 70 5
0 16 34 26 75 10 41 21 75 25 75 4 0 15 32 24 70 9 39 20 70 24 70 4 0 16 37
26 83 10 45 23 85 27 88 4 3 16 41 25 85 9 43 20 81 24 84 4 3 14 41 24 85 9
44 20 91 23 105 3 14 8 27 12 30 8 6 40 164 40 198 0 12 5 22 10 22 6 0 10 55
10 145 0 80 -3 145 -8 145 -4 0 -15 15 -25 33 -17 31 -66 67 -92 67 -7 0 -15
5 -17 10 -2 6 -77 18 -168 27 -91 9 -166 21 -168 25 -2 4 -94 8 -205 7 l-202
-1 -40 -44z m450 -140 c94 -10 172 -20 175 -24 3 -4 24 -11 46 -14 52 -9 94
-52 94 -96 0 -16 -4 -30 -8 -30 -4 0 -16 -47 -26 -105 -11 -58 -22 -105 -26
-105 -3 0 -15 -42 -25 -92 -10 -51 -22 -95 -25 -98 -4 -3 -15 -41 -24 -85 -9
-43 -20 -82 -25 -85 -5 -3 -16 -42 -26 -87 -10 -46 -21 -83 -26 -83 -4 0 -15
-34 -25 -75 -10 -41 -21 -75 -25 -75 -4 0 -15 -31 -24 -70 -9 -38 -20 -70 -24
-70 -4 0 -15 -31 -26 -70 -11 -38 -22 -70 -25 -70 -3 0 -14 -29 -25 -65 -10
-36 -21 -65 -25 -65 -3 0 -17 -36 -29 -80 -13 -44 -27 -80 -31 -80 -5 0 -16
-26 -26 -57 -10 -32 -21 -60 -25 -63 -4 -3 -15 -29 -24 -57 -10 -29 -20 -53
-24 -53 -4 0 -15 -27 -25 -60 -10 -33 -22 -60 -26 -60 -4 0 -15 -27 -24 -60
-9 -33 -21 -60 -25 -60 -5 0 -14 -20 -21 -45 -7 -25 -18 -49 -25 -53 -7 -4
-20 -22 -29 -40 -9 -17 -23 -32 -30 -32 -8 0 -16 -6 -19 -14 -11 -29 -113 -39
-332 -33 -115 4 -226 10 -246 15 -38 10 -99 57 -99 78 0 6 -6 14 -14 17 -7 3
-22 28 -32 56 -10 28 -21 51 -25 51 -4 0 -15 25 -24 55 -8 30 -19 55 -23 55
-4 0 -17 29 -27 65 -11 36 -23 65 -27 65 -4 0 -15 25 -24 55 -10 30 -21 55
-25 55 -4 0 -15 25 -24 55 -8 30 -19 55 -23 55 -7 0 -42 105 -42 127 0 6 -5
13 -10 15 -6 2 -17 27 -25 57 -8 30 -18 57 -23 60 -9 7 -42 105 -42 127 0 8
-4 14 -8 14 -5 0 -17 34 -27 75 -11 41 -22 75 -26 75 -4 0 -15 33 -24 73 -10
39 -22 74 -26 77 -5 3 -16 42 -25 85 -10 44 -21 82 -24 85 -4 3 -17 50 -30
105 -13 55 -27 102 -30 105 -4 3 -15 46 -25 95 -10 50 -22 92 -26 95 -8 6 -29
131 -31 193 -2 40 2 51 26 74 27 25 128 63 167 63 10 0 19 4 19 9 0 12 98 21
254 23 117 2 130 0 142 -18 8 -10 21 -27 30 -37 8 -10 24 -55 36 -100 12 -45
25 -84 28 -87 3 -3 14 -39 24 -80 11 -41 22 -77 25 -80 4 -3 15 -41 26 -85 10
-44 22 -82 25 -85 4 -3 15 -44 25 -92 10 -49 21 -88 25 -88 3 0 14 -38 25 -85
10 -47 21 -85 25 -85 3 0 14 -40 24 -90 11 -49 22 -90 26 -90 4 0 15 -38 25
-85 10 -47 22 -85 27 -85 4 0 8 -7 8 -16 0 -9 8 -29 17 -45 14 -24 24 -29 55
-29 58 0 72 22 98 149 13 61 27 111 31 111 4 0 15 43 25 95 10 52 21 95 25 95
3 0 15 42 24 93 10 50 21 94 25 97 4 3 15 44 25 93 10 48 21 87 25 87 3 0 14
41 24 90 11 50 22 90 26 90 4 0 15 38 25 85 11 47 22 85 26 85 3 0 12 28 19
62 8 33 22 68 32 77 10 8 18 21 18 28 0 6 10 19 22 27 29 21 100 21 313 0z"/>
</g>
</svg>
